<svg xmlns="http://www.w3.org/2000/svg" viewBox=" 10.5 0 87.1 108"><style>.a{fill:#FFF;}</style><path d="M17.8 37.9c0-20 16.4-36.4 36.4-36.4s36.4 16.4 36.4 36.4S74.2 74.3 54.2 74.3C33.9 74.3 17.8 57.9 17.8 37.9L17.8 37.9zM35.8 56.7c0.4 0.6 1.2 0.4 2-0.2 1.6-1.2 3.2-2.2 6.1-2.2 5.7 0 9.9 3.4 16.6 3.4 5.1 0 8.3-1.8 10.1-4.4 1.4-2 2-4.9 2-6.9 0-3-1.8-5.1-4.9-5.1 -2.8 0-4.2 1.4-4.2 3.6 0 0.8 0 2.6-0.6 3.4 -0.6 0.8-1.6 1.2-2.8 1.2 -3.2 0-6.9-2.6-11.1-2.6h-0.4l27.1-21.8c0.4-0.4 0.6-1.2 0.2-1.6l-4.2-4.9c-0.8-0.6-1.2-0.6-2 0 -1.4 1.2-2.8 2.2-5.7 2.2 -4.7 0-9.7-3-16.4-3 -4.7 0-7.3 1.8-9.1 3.6 -1.8 1.8-3 4.9-3 7.9 0 3 1.8 4.9 4.7 4.9 2.6 0 4.2-1.4 4.2-3.6 0-1.2 0-2.2 0.6-3 0.4-0.8 1.6-1.6 3.4-1.6 2.6 0 7.7 1.8 10.7 1.8h0.2L31.7 49.4c-0.6 0.4-0.6 1.4-0.2 1.8L35.8 56.7z" class="a"/><path d="M40.8 104c0-0.2 0.2-1 0.2-1.4l2-7.5c0-0.2 0-0.4-0.4-0.4h-1.8c-0.2 0-0.4 0-0.4 0.2l-0.8 1c-0.8-0.8-2.2-1.4-3.8-1.4 -2.8 0-5.9 2-6.9 5.9 -0.8 4.2 1.6 7.3 5.5 7.3 1.4 0 2.8-0.6 3.6-1.4 0.6 0.8 1.4 1.4 3 1.4 1.6 0 2.4-0.6 2.6-1.6 0.2-1.2-0.2-1.8-1.2-1.8 -0.4 0-0.8 0.2-1 0.2C41 104.4 40.8 104.2 40.8 104L40.8 104zM18.8 93.1c1.4 0 2.6 0.8 4.2 0.8 0.2 0 0.4 0 0.6 0l-12.7 11.3c-0.2 0.2-0.2 0.4 0 0.6l1.8 2c0.2 0.2 0.4 0.2 0.8 0 0.6-0.4 1.4-1 2.4-1 1.8 0 4 1 6.7 1 1.8 0 3-0.6 3.6-1.6 0.6-1 0.8-1.8 0.8-2.6 0-1.2-0.6-2-1.8-2 -1 0-1.4 0.6-1.6 1.4 0 0.4 0 1-0.2 1.2 -0.2 0.4-0.6 0.4-1 0.4 -1.4 0-2.6-0.8-4.7-0.8 -0.4 0-0.6 0-1 0.2l12.5-11.1c0.2-0.2 0.2-0.4 0-0.6l-1.8-1.8c-0.2-0.2-0.4-0.2-0.4 0 -0.4 0.4-1.2 0.6-2.4 0.6 -2 0-4-1-6.3-1 -1.6 0-2.8 0.4-3.6 1.4 -0.8 0.8-1.2 2-1.2 2.8 0 1 0.6 1.8 1.8 1.8 1 0 1.6-0.6 1.6-1.4 0-0.4 0.2-1 0.4-1.2C17.8 93.3 18.2 93.1 18.8 93.1L18.8 93.1zM90.4 107.6c2 0 3.6-0.6 4.4-1.4 0.4-0.4 0.6-1 0.6-1.4 0-0.8-0.4-1.2-1.4-1.2 -1.2 0-1.8 1.2-3.6 1.2 -2 0-3.4-1.2-3.6-3.2 1.2 0.6 2.8 1 4.9 1 2.4 0 4.4-0.8 5.1-2.8 0.8-2.8-1.2-5.5-5.5-5.5 -3.6 0-6.5 2-7.3 5.3C82.7 103.8 85.3 107.6 90.4 107.6L90.4 107.6zM61.5 107.4c0.2 0.2 0.4 0.2 0.6 0 0.6-0.4 1-0.8 2-0.8 1.8 0 3.4 1 5.9 1 1.8 0 2.8-0.6 3.4-1.4 0.4-0.6 0.8-1.6 0.8-2.4 0-1-0.6-1.8-1.6-1.8 -1 0-1.4 0.4-1.4 1.2 0 0.2 0 0.8-0.2 1.2 -0.2 0.2-0.4 0.4-1 0.4 -1 0-2.4-0.6-3.8-0.6h-0.2l9.3-7.5c0.2-0.2 0.2-0.4 0-0.6l-1.4-1.6c-0.2-0.2-0.4-0.2-0.6 0 -0.4 0.4-1 0.8-2 0.8 -1.6 0-3.2-1-5.5-1 -1.6 0-2.4 0.6-3 1.2 -0.6 0.6-1 1.6-1 2.6 0 1 0.6 1.6 1.6 1.6 0.8 0 1.4-0.4 1.4-1.2 0-0.4 0-0.8 0.2-1 0.2-0.2 0.6-0.4 1-0.4 0.8 0 2.4 0.6 3.6 0.6l0 0 -9.5 7.5c-0.2 0.2-0.2 0.4 0 0.6L61.5 107.4zM50.9 104.2c-0.2 0-0.2 0-0.4 0l9.3-7.5c0.2-0.2 0.2-0.4 0-0.6l-1.4-1.6c-0.2-0.2-0.4-0.2-0.6 0 -0.4 0.4-1 0.8-2 0.8 -1.6 0-3.4-1-5.7-1 -1.6 0-2.4 0.6-3 1.2 -0.6 0.6-1 1.6-1 2.6 0 1 0.6 1.6 1.6 1.6 0.8 0 1.4-0.4 1.4-1.2 0-0.4 0-0.8 0.2-1 0.2-0.2 0.6-0.4 1-0.4 0.8 0 2.4 0.6 3.6 0.6h0.2l-9.3 7.3c-0.2 0.2-0.2 0.4 0 0.6l1.4 2c0.2 0.2 0.4 0.2 0.6 0 0.6-0.4 1-0.8 2-0.8 1.8 0 3.2 1 5.7 1 1.8 0 2.8-0.6 3.4-1.4 0.4-0.6 0.8-1.6 0.8-2.4 0-1-0.6-1.8-1.6-1.8 -1 0-1.4 0.4-1.4 1.2 0 0.2 0 0.8-0.2 1.2 -0.2 0.2-0.4 0.4-1 0.4C53.6 104.8 52.4 104.2 50.9 104.2L50.9 104.2zM83.5 90.3c0-0.2 0-0.4-0.2-0.4h-2.6c-0.2 0-0.4 0.2-0.4 0.4l-3.4 11.3c-0.4 1.4-0.6 2.2-0.6 3.2 0 0.8 0.2 1.4 0.8 1.8 0.4 0.6 1.4 1 2.8 1s2.4-0.6 2.8-1.6c0.4-1-0.4-1.8-1.2-1.8 -0.6 0-0.8 0.2-1.2 0.2 -0.2 0-0.4-0.2-0.4-0.4 0-0.4 0.2-1.2 0.4-1.6L83.5 90.3zM35.4 104.6c-2 0-3.2-1.4-2.6-4 0.4-2.2 2-3.4 3.8-3.4 1 0 1.8 0.4 2.2 1l-1.4 5.7C36.8 104.4 36.2 104.6 35.4 104.6L35.4 104.6zM91.2 96.9c1.6 0 2.6 0.8 2.2 1.8 -0.2 0.8-1 1-2.6 1 -1.2 0-2.4-0.4-3.4-0.6C88.1 97.7 89.4 96.9 91.2 96.9z" class="a"/></svg>